<?xml version="1.0" encoding="UTF-8" standalone="no"?>
<!DOCTYPE svg PUBLIC "-//W3C//DTD SVG 1.1//EN"
 "http://www.w3.org/Graphics/SVG/1.1/DTD/svg11.dtd">
<!-- Generated by graphviz version 2.38.0 (20140413.2041)
 -->
<!-- Title: controllers_diagram Pages: 1 -->
<svg width="753pt" height="681pt"
 viewBox="0.00 0.00 752.50 681.00" xmlns="http://www.w3.org/2000/svg" xmlns:xlink="http://www.w3.org/1999/xlink">
<g id="graph0" class="graph" transform="scale(1 1) rotate(0) translate(276 405.5)">
<title>controllers_diagram</title>
<polygon fill="none" stroke="none" points="-276,275.5 -276,-405.5 476.5,-405.5 476.5,275.5 -276,275.5"/>
<!-- _diagram_info -->
<g id="node1" class="node"><title>_diagram_info</title>
<text text-anchor="start" x="93" y="140.4" font-family="Times,serif" font-size="13.00">Controllers diagram</text>
<text text-anchor="start" x="93" y="154.4" font-family="Times,serif" font-size="13.00">Date: Jan 06 2020 &#45; 23:22</text>
<text text-anchor="start" x="93" y="168.4" font-family="Times,serif" font-size="13.00">Migration version: 20200106175859</text>
<text text-anchor="start" x="93" y="182.4" font-family="Times,serif" font-size="13.00">Generated by RailRoady 1.5.3</text>
<text text-anchor="start" x="93" y="196.4" font-family="Times,serif" font-size="13.00">http://railroady.prestonlee.com</text>
</g>
<!-- ProgramsController -->
<g id="node2" class="node"><title>ProgramsController</title>
<path fill="none" stroke="black" d="M-56.5,135.5C-56.5,135.5 44.5,135.5 44.5,135.5 50.5,135.5 56.5,129.5 56.5,123.5 56.5,123.5 56.5,-95.5 56.5,-95.5 56.5,-101.5 50.5,-107.5 44.5,-107.5 44.5,-107.5 -56.5,-107.5 -56.5,-107.5 -62.5,-107.5 -68.5,-101.5 -68.5,-95.5 -68.5,-95.5 -68.5,123.5 -68.5,123.5 -68.5,129.5 -62.5,135.5 -56.5,135.5"/>
<text text-anchor="middle" x="-6" y="-92.3" font-family="Times,serif" font-size="14.00">ProgramsController</text>
<polyline fill="none" stroke="black" points="-68.5,-84.5 56.5,-84.5 "/>
<text text-anchor="start" x="-60.5" y="-69.3" font-family="Times,serif" font-size="14.00">create</text>
<text text-anchor="start" x="-60.5" y="-54.3" font-family="Times,serif" font-size="14.00">edit</text>
<text text-anchor="start" x="-60.5" y="-39.3" font-family="Times,serif" font-size="14.00">new</text>
<text text-anchor="start" x="-60.5" y="-24.3" font-family="Times,serif" font-size="14.00">show</text>
<text text-anchor="start" x="-60.5" y="-9.3" font-family="Times,serif" font-size="14.00">update</text>
<text text-anchor="start" x="-60.5" y="5.7" font-family="Times,serif" font-size="14.00">user_programs</text>
<polyline fill="none" stroke="black" points="-68.5,13.5 56.5,13.5 "/>
<polyline fill="none" stroke="black" points="-68.5,37.5 56.5,37.5 "/>
<text text-anchor="start" x="-60.5" y="52.7" font-family="Times,serif" font-size="14.00">_layout</text>
<text text-anchor="start" x="-60.5" y="67.7" font-family="Times,serif" font-size="14.00">program_params</text>
<text text-anchor="start" x="-60.5" y="82.7" font-family="Times,serif" font-size="14.00">set_contract</text>
<text text-anchor="start" x="-60.5" y="97.7" font-family="Times,serif" font-size="14.00">set_plan</text>
<text text-anchor="start" x="-60.5" y="112.7" font-family="Times,serif" font-size="14.00">set_program</text>
<text text-anchor="start" x="-60.5" y="127.7" font-family="Times,serif" font-size="14.00">set_user</text>
</g>
<!-- ContractsController -->
<g id="node3" class="node"><title>ContractsController</title>
<path fill="none" stroke="black" d="M-56,-137C-56,-137 44,-137 44,-137 50,-137 56,-143 56,-149 56,-149 56,-323 56,-323 56,-329 50,-335 44,-335 44,-335 -56,-335 -56,-335 -62,-335 -68,-329 -68,-323 -68,-323 -68,-149 -68,-149 -68,-143 -62,-137 -56,-137"/>
<text text-anchor="middle" x="-6" y="-319.8" font-family="Times,serif" font-size="14.00">ContractsController</text>
<polyline fill="none" stroke="black" points="-68,-312 56,-312 "/>
<text text-anchor="start" x="-60" y="-296.8" font-family="Times,serif" font-size="14.00">create</text>
<text text-anchor="start" x="-60" y="-281.8" font-family="Times,serif" font-size="14.00">edit</text>
<text text-anchor="start" x="-60" y="-266.8" font-family="Times,serif" font-size="14.00">new</text>
<text text-anchor="start" x="-60" y="-251.8" font-family="Times,serif" font-size="14.00">show</text>
<text text-anchor="start" x="-60" y="-236.8" font-family="Times,serif" font-size="14.00">update</text>
<polyline fill="none" stroke="black" points="-68,-229 56,-229 "/>
<polyline fill="none" stroke="black" points="-68,-205 56,-205 "/>
<text text-anchor="start" x="-60" y="-189.8" font-family="Times,serif" font-size="14.00">_layout</text>
<text text-anchor="start" x="-60" y="-174.8" font-family="Times,serif" font-size="14.00">set_contract</text>
<text text-anchor="start" x="-60" y="-159.8" font-family="Times,serif" font-size="14.00">set_params</text>
<text text-anchor="start" x="-60" y="-144.8" font-family="Times,serif" font-size="14.00">set_plan</text>
</g>
<!-- Users::SessionsController -->
<g id="node4" class="node"><title>Users::SessionsController</title>
<path fill="none" stroke="black" d="M-242.5,-256C-242.5,-256 -109.5,-256 -109.5,-256 -103.5,-256 -97.5,-262 -97.5,-268 -97.5,-268 -97.5,-338 -97.5,-338 -97.5,-344 -103.5,-350 -109.5,-350 -109.5,-350 -242.5,-350 -242.5,-350 -248.5,-350 -254.5,-344 -254.5,-338 -254.5,-338 -254.5,-268 -254.5,-268 -254.5,-262 -248.5,-256 -242.5,-256"/>
<text text-anchor="middle" x="-176" y="-334.8" font-family="Times,serif" font-size="14.00">Users::SessionsController</text>
<polyline fill="none" stroke="black" points="-254.5,-327 -97.5,-327 "/>
<polyline fill="none" stroke="black" points="-254.5,-303 -97.5,-303 "/>
<polyline fill="none" stroke="black" points="-254.5,-279 -97.5,-279 "/>
<text text-anchor="start" x="-246.5" y="-263.8" font-family="Times,serif" font-size="14.00">_layout</text>
</g>
<!-- Users::OmniauthCallbacksController -->
<g id="node5" class="node"><title>Users::OmniauthCallbacksController</title>
<path fill="none" stroke="black" d="M182,-171C182,-171 376,-171 376,-171 382,-171 388,-177 388,-183 388,-183 388,-253 388,-253 388,-259 382,-265 376,-265 376,-265 182,-265 182,-265 176,-265 170,-259 170,-253 170,-253 170,-183 170,-183 170,-177 176,-171 182,-171"/>
<text text-anchor="middle" x="279" y="-249.8" font-family="Times,serif" font-size="14.00">Users::OmniauthCallbacksController</text>
<polyline fill="none" stroke="black" points="170,-242 388,-242 "/>
<polyline fill="none" stroke="black" points="170,-218 388,-218 "/>
<polyline fill="none" stroke="black" points="170,-194 388,-194 "/>
<text text-anchor="start" x="178" y="-178.8" font-family="Times,serif" font-size="14.00">_layout</text>
</g>
<!-- Users::RegistrationsController -->
<g id="node6" class="node"><title>Users::RegistrationsController</title>
<path fill="none" stroke="black" d="M-260,271C-260,271 -102,271 -102,271 -96,271 -90,265 -90,259 -90,259 -90,189 -90,189 -90,183 -96,177 -102,177 -102,177 -260,177 -260,177 -266,177 -272,183 -272,189 -272,189 -272,259 -272,259 -272,265 -266,271 -260,271"/>
<text text-anchor="middle" x="-181" y="192.2" font-family="Times,serif" font-size="14.00">Users::RegistrationsController</text>
<polyline fill="none" stroke="black" points="-272,200 -90,200 "/>
<polyline fill="none" stroke="black" points="-272,224 -90,224 "/>
<polyline fill="none" stroke="black" points="-272,248 -90,248 "/>
<text text-anchor="start" x="-264" y="263.2" font-family="Times,serif" font-size="14.00">_layout</text>
</g>
<!-- Users::ConfirmationsController -->
<g id="node7" class="node"><title>Users::ConfirmationsController</title>
<path fill="none" stroke="black" d="M250.5,84C250.5,84 415.5,84 415.5,84 421.5,84 427.5,78 427.5,72 427.5,72 427.5,2 427.5,2 427.5,-4 421.5,-10 415.5,-10 415.5,-10 250.5,-10 250.5,-10 244.5,-10 238.5,-4 238.5,2 238.5,2 238.5,72 238.5,72 238.5,78 244.5,84 250.5,84"/>
<text text-anchor="middle" x="333" y="5.2" font-family="Times,serif" font-size="14.00">Users::ConfirmationsController</text>
<polyline fill="none" stroke="black" points="238.5,13 427.5,13 "/>
<polyline fill="none" stroke="black" points="238.5,37 427.5,37 "/>
<polyline fill="none" stroke="black" points="238.5,61 427.5,61 "/>
<text text-anchor="start" x="246.5" y="76.2" font-family="Times,serif" font-size="14.00">_layout</text>
</g>
<!-- Users::UnlocksController -->
<g id="node8" class="node"><title>Users::UnlocksController</title>
<path fill="none" stroke="black" d="M-242.5,135C-242.5,135 -111.5,135 -111.5,135 -105.5,135 -99.5,129 -99.5,123 -99.5,123 -99.5,53 -99.5,53 -99.5,47 -105.5,41 -111.5,41 -111.5,41 -242.5,41 -242.5,41 -248.5,41 -254.5,47 -254.5,53 -254.5,53 -254.5,123 -254.5,123 -254.5,129 -248.5,135 -242.5,135"/>
<text text-anchor="middle" x="-177" y="56.2" font-family="Times,serif" font-size="14.00">Users::UnlocksController</text>
<polyline fill="none" stroke="black" points="-254.5,64 -99.5,64 "/>
<polyline fill="none" stroke="black" points="-254.5,88 -99.5,88 "/>
<polyline fill="none" stroke="black" points="-254.5,112 -99.5,112 "/>
<text text-anchor="start" x="-246.5" y="127.2" font-family="Times,serif" font-size="14.00">_layout</text>
</g>
<!-- Users::PasswordsController -->
<g id="node9" class="node"><title>Users::PasswordsController</title>
<path fill="none" stroke="black" d="M317.5,-307C317.5,-307 460.5,-307 460.5,-307 466.5,-307 472.5,-313 472.5,-319 472.5,-319 472.5,-389 472.5,-389 472.5,-395 466.5,-401 460.5,-401 460.5,-401 317.5,-401 317.5,-401 311.5,-401 305.5,-395 305.5,-389 305.5,-389 305.5,-319 305.5,-319 305.5,-313 311.5,-307 317.5,-307"/>
<text text-anchor="middle" x="389" y="-385.8" font-family="Times,serif" font-size="14.00">Users::PasswordsController</text>
<polyline fill="none" stroke="black" points="305.5,-378 472.5,-378 "/>
<polyline fill="none" stroke="black" points="305.5,-354 472.5,-354 "/>
<polyline fill="none" stroke="black" points="305.5,-330 472.5,-330 "/>
<text text-anchor="start" x="313.5" y="-314.8" font-family="Times,serif" font-size="14.00">_layout</text>
</g>
<!-- ApplicationController -->
<g id="node10" class="node"><title>ApplicationController</title>
<path fill="none" stroke="black" d="M250,-51.5C250,-51.5 420,-51.5 420,-51.5 426,-51.5 432,-57.5 432,-63.5 432,-63.5 432,-132.5 432,-132.5 432,-138.5 426,-144.5 420,-144.5 420,-144.5 250,-144.5 250,-144.5 244,-144.5 238,-138.5 238,-132.5 238,-132.5 238,-63.5 238,-63.5 238,-57.5 244,-51.5 250,-51.5"/>
<text text-anchor="middle" x="335" y="-129.3" font-family="Times,serif" font-size="14.00">ApplicationController</text>
<polyline fill="none" stroke="black" points="238,-121.5 432,-121.5 "/>
<polyline fill="none" stroke="black" points="238,-97.5 432,-97.5 "/>
<text text-anchor="start" x="246" y="-82.3" font-family="Times,serif" font-size="14.00">configure_permitted_parameters</text>
<polyline fill="none" stroke="black" points="238,-74.5 432,-74.5 "/>
<text text-anchor="start" x="246" y="-59.3" font-family="Times,serif" font-size="14.00">_layout</text>
</g>
<!-- PlansController -->
<g id="node11" class="node"><title>PlansController</title>
<path fill="none" stroke="black" d="M-225.5,-0.5C-225.5,-0.5 -112.5,-0.5 -112.5,-0.5 -106.5,-0.5 -100.5,-6.5 -100.5,-12.5 -100.5,-12.5 -100.5,-141.5 -100.5,-141.5 -100.5,-147.5 -106.5,-153.5 -112.5,-153.5 -112.5,-153.5 -225.5,-153.5 -225.5,-153.5 -231.5,-153.5 -237.5,-147.5 -237.5,-141.5 -237.5,-141.5 -237.5,-12.5 -237.5,-12.5 -237.5,-6.5 -231.5,-0.5 -225.5,-0.5"/>
<text text-anchor="middle" x="-169" y="-138.3" font-family="Times,serif" font-size="14.00">PlansController</text>
<polyline fill="none" stroke="black" points="-237.5,-130.5 -100.5,-130.5 "/>
<text text-anchor="start" x="-229.5" y="-115.3" font-family="Times,serif" font-size="14.00">contact</text>
<text text-anchor="start" x="-229.5" y="-100.3" font-family="Times,serif" font-size="14.00">index</text>
<text text-anchor="start" x="-229.5" y="-85.3" font-family="Times,serif" font-size="14.00">profile</text>
<text text-anchor="start" x="-229.5" y="-70.3" font-family="Times,serif" font-size="14.00">terms_and_conditions</text>
<text text-anchor="start" x="-229.5" y="-55.3" font-family="Times,serif" font-size="14.00">user_contracts</text>
<polyline fill="none" stroke="black" points="-237.5,-47.5 -100.5,-47.5 "/>
<polyline fill="none" stroke="black" points="-237.5,-23.5 -100.5,-23.5 "/>
<text text-anchor="start" x="-229.5" y="-8.3" font-family="Times,serif" font-size="14.00">_layout</text>
</g>
<!-- ResultsController -->
<g id="node12" class="node"><title>ResultsController</title>
<path fill="none" stroke="black" d="M97,84C97,84 185,84 185,84 191,84 197,78 197,72 197,72 197,-132 197,-132 197,-138 191,-144 185,-144 185,-144 97,-144 97,-144 91,-144 85,-138 85,-132 85,-132 85,72 85,72 85,78 91,84 97,84"/>
<text text-anchor="middle" x="141" y="-128.8" font-family="Times,serif" font-size="14.00">ResultsController</text>
<polyline fill="none" stroke="black" points="85,-121 197,-121 "/>
<text text-anchor="start" x="93" y="-105.8" font-family="Times,serif" font-size="14.00">create</text>
<text text-anchor="start" x="93" y="-90.8" font-family="Times,serif" font-size="14.00">destroy</text>
<text text-anchor="start" x="93" y="-75.8" font-family="Times,serif" font-size="14.00">edit</text>
<text text-anchor="start" x="93" y="-60.8" font-family="Times,serif" font-size="14.00">index</text>
<text text-anchor="start" x="93" y="-45.8" font-family="Times,serif" font-size="14.00">new</text>
<text text-anchor="start" x="93" y="-30.8" font-family="Times,serif" font-size="14.00">show</text>
<text text-anchor="start" x="93" y="-15.8" font-family="Times,serif" font-size="14.00">update</text>
<polyline fill="none" stroke="black" points="85,-8 197,-8 "/>
<polyline fill="none" stroke="black" points="85,16 197,16 "/>
<text text-anchor="start" x="93" y="31.2" font-family="Times,serif" font-size="14.00">_layout</text>
<text text-anchor="start" x="93" y="46.2" font-family="Times,serif" font-size="14.00">result_params</text>
<text text-anchor="start" x="93" y="61.2" font-family="Times,serif" font-size="14.00">set_result</text>
<text text-anchor="start" x="93" y="76.2" font-family="Times,serif" font-size="14.00">set_user</text>
</g>
</g>
</svg>
