<?xml version="1.0" encoding="UTF-8" standalone="no"?>
<!DOCTYPE svg PUBLIC "-//W3C//DTD SVG 1.1//EN"
 "http://www.w3.org/Graphics/SVG/1.1/DTD/svg11.dtd">
<!-- Generated by graphviz version 2.38.0 (20140413.2041)
 -->
<!-- Title: models_diagram Pages: 1 -->
<svg width="1062pt" height="994pt"
 viewBox="0.00 0.00 1061.50 994.00" xmlns="http://www.w3.org/2000/svg" xmlns:xlink="http://www.w3.org/1999/xlink">
<g id="graph0" class="graph" transform="scale(1 1) rotate(0) translate(4 990)">
<title>models_diagram</title>
<polygon fill="none" stroke="none" points="-4,4 -4,-990 1057.5,-990 1057.5,4 -4,4"/>
<!-- _diagram_info -->
<g id="node1" class="node"><title>_diagram_info</title>
<text text-anchor="start" x="8" y="-927.1" font-family="Times,serif" font-size="13.00">Models diagram</text>
<text text-anchor="start" x="8" y="-913.1" font-family="Times,serif" font-size="13.00">Date: Jan 06 2020 &#45; 23:22</text>
<text text-anchor="start" x="8" y="-899.1" font-family="Times,serif" font-size="13.00">Migration version: 20200106175859</text>
<text text-anchor="start" x="8" y="-885.1" font-family="Times,serif" font-size="13.00">Generated by RailRoady 1.5.3</text>
<text text-anchor="start" x="8" y="-871.1" font-family="Times,serif" font-size="13.00">http://railroady.prestonlee.com</text>
</g>
<!-- Contract -->
<g id="node2" class="node"><title>Contract</title>
<path fill="none" stroke="black" d="M151,-203.5C151,-203.5 371,-203.5 371,-203.5 377,-203.5 383,-209.5 383,-215.5 383,-215.5 383,-447.5 383,-447.5 383,-453.5 377,-459.5 371,-459.5 371,-459.5 151,-459.5 151,-459.5 145,-459.5 139,-453.5 139,-447.5 139,-447.5 139,-215.5 139,-215.5 139,-209.5 145,-203.5 151,-203.5"/>
<text text-anchor="middle" x="261" y="-444.3" font-family="Times,serif" font-size="14.00">Contract</text>
<polyline fill="none" stroke="black" points="139,-436.5 383,-436.5 "/>
<text text-anchor="start" x="147" y="-421.3" font-family="Times,serif" font-size="14.00">id :bigint</text>
<text text-anchor="start" x="147" y="-406.3" font-family="Times,serif" font-size="14.00">weight :double precision</text>
<text text-anchor="start" x="147" y="-391.3" font-family="Times,serif" font-size="14.00">height :double precision</text>
<text text-anchor="start" x="147" y="-376.3" font-family="Times,serif" font-size="14.00">goal :text</text>
<text text-anchor="start" x="147" y="-361.3" font-family="Times,serif" font-size="14.00">fat_percentage :double precision</text>
<text text-anchor="start" x="147" y="-346.3" font-family="Times,serif" font-size="14.00">user_id :bigint</text>
<text text-anchor="start" x="147" y="-331.3" font-family="Times,serif" font-size="14.00">plan_id :bigint</text>
<text text-anchor="start" x="147" y="-316.3" font-family="Times,serif" font-size="14.00">created_at :timestamp without time zone</text>
<text text-anchor="start" x="147" y="-301.3" font-family="Times,serif" font-size="14.00">updated_at :timestamp without time zone</text>
<text text-anchor="start" x="147" y="-286.3" font-family="Times,serif" font-size="14.00">age :integer</text>
<text text-anchor="start" x="147" y="-271.3" font-family="Times,serif" font-size="14.00">sex :integer</text>
<text text-anchor="start" x="147" y="-256.3" font-family="Times,serif" font-size="14.00">pending :boolean</text>
<text text-anchor="start" x="147" y="-241.3" font-family="Times,serif" font-size="14.00">start_date :date</text>
<text text-anchor="start" x="147" y="-226.3" font-family="Times,serif" font-size="14.00">end_date :date</text>
<text text-anchor="start" x="147" y="-211.3" font-family="Times,serif" font-size="14.00">category :character varying</text>
</g>
<!-- Program -->
<g id="node6" class="node"><title>Program</title>
<path fill="none" stroke="black" d="M151,-0.5C151,-0.5 371,-0.5 371,-0.5 377,-0.5 383,-6.5 383,-12.5 383,-12.5 383,-154.5 383,-154.5 383,-160.5 377,-166.5 371,-166.5 371,-166.5 151,-166.5 151,-166.5 145,-166.5 139,-160.5 139,-154.5 139,-154.5 139,-12.5 139,-12.5 139,-6.5 145,-0.5 151,-0.5"/>
<text text-anchor="middle" x="261" y="-151.3" font-family="Times,serif" font-size="14.00">Program</text>
<polyline fill="none" stroke="black" points="139,-143.5 383,-143.5 "/>
<text text-anchor="start" x="147" y="-128.3" font-family="Times,serif" font-size="14.00">id :bigint</text>
<text text-anchor="start" x="147" y="-113.3" font-family="Times,serif" font-size="14.00">contract_id :bigint</text>
<text text-anchor="start" x="147" y="-98.3" font-family="Times,serif" font-size="14.00">created_at :timestamp without time zone</text>
<text text-anchor="start" x="147" y="-83.3" font-family="Times,serif" font-size="14.00">updated_at :timestamp without time zone</text>
<text text-anchor="start" x="147" y="-68.3" font-family="Times,serif" font-size="14.00">training :text</text>
<text text-anchor="start" x="147" y="-53.3" font-family="Times,serif" font-size="14.00">nutrition :text</text>
<text text-anchor="start" x="147" y="-38.3" font-family="Times,serif" font-size="14.00">coach_mail :character varying</text>
<text text-anchor="start" x="147" y="-23.3" font-family="Times,serif" font-size="14.00">coach_name :character varying</text>
<text text-anchor="start" x="147" y="-8.3" font-family="Times,serif" font-size="14.00">edited :boolean</text>
</g>
<!-- Contract&#45;&gt;Program -->
<g id="edge1" class="edge"><title>Contract&#45;&gt;Program</title>
<path fill="none" stroke="#141109" d="M261,-195.035C261,-188.84 261,-182.688 261,-176.643"/>
<ellipse fill="none" stroke="#141109" cx="261" cy="-199.177" rx="4" ry="4"/>
<polygon fill="#141109" stroke="#141109" points="261,-176.58 265.5,-166.58 261,-171.58 261,-166.58 261,-166.58 261,-166.58 261,-171.58 256.5,-166.58 261,-176.58 261,-176.58"/>
</g>
<!-- AdminUser -->
<g id="node3" class="node"><title>AdminUser</title>
<path fill="none" stroke="black" d="M506.5,-827C506.5,-827 795.5,-827 795.5,-827 801.5,-827 807.5,-833 807.5,-839 807.5,-839 807.5,-966 807.5,-966 807.5,-972 801.5,-978 795.5,-978 795.5,-978 506.5,-978 506.5,-978 500.5,-978 494.5,-972 494.5,-966 494.5,-966 494.5,-839 494.5,-839 494.5,-833 500.5,-827 506.5,-827"/>
<text text-anchor="middle" x="651" y="-962.8" font-family="Times,serif" font-size="14.00">AdminUser</text>
<polyline fill="none" stroke="black" points="494.5,-955 807.5,-955 "/>
<text text-anchor="start" x="502.5" y="-939.8" font-family="Times,serif" font-size="14.00">id :bigint</text>
<text text-anchor="start" x="502.5" y="-924.8" font-family="Times,serif" font-size="14.00">email :character varying</text>
<text text-anchor="start" x="502.5" y="-909.8" font-family="Times,serif" font-size="14.00">encrypted_password :character varying</text>
<text text-anchor="start" x="502.5" y="-894.8" font-family="Times,serif" font-size="14.00">reset_password_token :character varying</text>
<text text-anchor="start" x="502.5" y="-879.8" font-family="Times,serif" font-size="14.00">reset_password_sent_at :timestamp without time zone</text>
<text text-anchor="start" x="502.5" y="-864.8" font-family="Times,serif" font-size="14.00">remember_created_at :timestamp without time zone</text>
<text text-anchor="start" x="502.5" y="-849.8" font-family="Times,serif" font-size="14.00">created_at :timestamp without time zone</text>
<text text-anchor="start" x="502.5" y="-834.8" font-family="Times,serif" font-size="14.00">updated_at :timestamp without time zone</text>
</g>
<!-- ApplicationRecord -->
<g id="node4" class="node"><title>ApplicationRecord</title>
<ellipse fill="none" stroke="black" cx="903" cy="-902.5" rx="77.1866" ry="18"/>
<text text-anchor="middle" x="903" y="-898.8" font-family="Times,serif" font-size="14.00">ApplicationRecord</text>
</g>
<!-- Result -->
<g id="node5" class="node"><title>Result</title>
<path fill="none" stroke="black" d="M413.5,-211C413.5,-211 658.5,-211 658.5,-211 664.5,-211 670.5,-217 670.5,-223 670.5,-223 670.5,-440 670.5,-440 670.5,-446 664.5,-452 658.5,-452 658.5,-452 413.5,-452 413.5,-452 407.5,-452 401.5,-446 401.5,-440 401.5,-440 401.5,-223 401.5,-223 401.5,-217 407.5,-211 413.5,-211"/>
<text text-anchor="middle" x="536" y="-436.8" font-family="Times,serif" font-size="14.00">Result</text>
<polyline fill="none" stroke="black" points="401.5,-429 670.5,-429 "/>
<text text-anchor="start" x="409.5" y="-413.8" font-family="Times,serif" font-size="14.00">id :bigint</text>
<text text-anchor="start" x="409.5" y="-398.8" font-family="Times,serif" font-size="14.00">user_id :bigint</text>
<text text-anchor="start" x="409.5" y="-383.8" font-family="Times,serif" font-size="14.00">date :date</text>
<text text-anchor="start" x="409.5" y="-368.8" font-family="Times,serif" font-size="14.00">hundred_mts :double precision</text>
<text text-anchor="start" x="409.5" y="-353.8" font-family="Times,serif" font-size="14.00">two_hundred_mts :double precision</text>
<text text-anchor="start" x="409.5" y="-338.8" font-family="Times,serif" font-size="14.00">three_hundred_mts :double precision</text>
<text text-anchor="start" x="409.5" y="-323.8" font-family="Times,serif" font-size="14.00">four_hundred_mts :double precision</text>
<text text-anchor="start" x="409.5" y="-308.8" font-family="Times,serif" font-size="14.00">eight_hundred_mts :double precision</text>
<text text-anchor="start" x="409.5" y="-293.8" font-family="Times,serif" font-size="14.00">thousand_mts :double precision</text>
<text text-anchor="start" x="409.5" y="-278.8" font-family="Times,serif" font-size="14.00">thousand_five_hundred_mts :double precision</text>
<text text-anchor="start" x="409.5" y="-263.8" font-family="Times,serif" font-size="14.00">cooper_test :integer</text>
<text text-anchor="start" x="409.5" y="-248.8" font-family="Times,serif" font-size="14.00">squat_rm :integer</text>
<text text-anchor="start" x="409.5" y="-233.8" font-family="Times,serif" font-size="14.00">created_at :timestamp without time zone</text>
<text text-anchor="start" x="409.5" y="-218.8" font-family="Times,serif" font-size="14.00">updated_at :timestamp without time zone</text>
</g>
<!-- Plan -->
<g id="node7" class="node"><title>Plan</title>
<path fill="none" stroke="black" d="M244,-819.5C244,-819.5 464,-819.5 464,-819.5 470,-819.5 476,-825.5 476,-831.5 476,-831.5 476,-973.5 476,-973.5 476,-979.5 470,-985.5 464,-985.5 464,-985.5 244,-985.5 244,-985.5 238,-985.5 232,-979.5 232,-973.5 232,-973.5 232,-831.5 232,-831.5 232,-825.5 238,-819.5 244,-819.5"/>
<text text-anchor="middle" x="354" y="-970.3" font-family="Times,serif" font-size="14.00">Plan</text>
<polyline fill="none" stroke="black" points="232,-962.5 476,-962.5 "/>
<text text-anchor="start" x="240" y="-947.3" font-family="Times,serif" font-size="14.00">id :bigint</text>
<text text-anchor="start" x="240" y="-932.3" font-family="Times,serif" font-size="14.00">price :double precision</text>
<text text-anchor="start" x="240" y="-917.3" font-family="Times,serif" font-size="14.00">date_start :date</text>
<text text-anchor="start" x="240" y="-902.3" font-family="Times,serif" font-size="14.00">duration :integer</text>
<text text-anchor="start" x="240" y="-887.3" font-family="Times,serif" font-size="14.00">contract_type :integer</text>
<text text-anchor="start" x="240" y="-872.3" font-family="Times,serif" font-size="14.00">description :text</text>
<text text-anchor="start" x="240" y="-857.3" font-family="Times,serif" font-size="14.00">discount :integer</text>
<text text-anchor="start" x="240" y="-842.3" font-family="Times,serif" font-size="14.00">created_at :timestamp without time zone</text>
<text text-anchor="start" x="240" y="-827.3" font-family="Times,serif" font-size="14.00">updated_at :timestamp without time zone</text>
</g>
<!-- Plan&#45;&gt;Contract -->
<g id="edge2" class="edge"><title>Plan&#45;&gt;Contract</title>
<path fill="none" stroke="#518d63" d="M292.578,-812.016C287.995,-802.516 283.999,-792.755 281,-783 249.735,-681.298 246.03,-560.614 249.433,-469.764"/>
<ellipse fill="none" stroke="#518d63" cx="294.398" cy="-815.65" rx="4.00002" ry="4.00002"/>
<polygon fill="#518d63" stroke="#518d63" points="249.437,-469.667 254.341,-459.859 249.641,-464.671 249.845,-459.675 249.845,-459.675 249.845,-459.675 249.641,-464.671 245.349,-459.492 249.437,-469.667 249.437,-469.667"/>
</g>
<!-- User -->
<g id="node8" class="node"><title>User</title>
<path fill="none" stroke="black" d="M301.5,-496.5C301.5,-496.5 590.5,-496.5 590.5,-496.5 596.5,-496.5 602.5,-502.5 602.5,-508.5 602.5,-508.5 602.5,-770.5 602.5,-770.5 602.5,-776.5 596.5,-782.5 590.5,-782.5 590.5,-782.5 301.5,-782.5 301.5,-782.5 295.5,-782.5 289.5,-776.5 289.5,-770.5 289.5,-770.5 289.5,-508.5 289.5,-508.5 289.5,-502.5 295.5,-496.5 301.5,-496.5"/>
<text text-anchor="middle" x="446" y="-767.3" font-family="Times,serif" font-size="14.00">User</text>
<polyline fill="none" stroke="black" points="289.5,-759.5 602.5,-759.5 "/>
<text text-anchor="start" x="297.5" y="-744.3" font-family="Times,serif" font-size="14.00">id :bigint</text>
<text text-anchor="start" x="297.5" y="-729.3" font-family="Times,serif" font-size="14.00">email :character varying</text>
<text text-anchor="start" x="297.5" y="-714.3" font-family="Times,serif" font-size="14.00">encrypted_password :character varying</text>
<text text-anchor="start" x="297.5" y="-699.3" font-family="Times,serif" font-size="14.00">reset_password_token :character varying</text>
<text text-anchor="start" x="297.5" y="-684.3" font-family="Times,serif" font-size="14.00">reset_password_sent_at :timestamp without time zone</text>
<text text-anchor="start" x="297.5" y="-669.3" font-family="Times,serif" font-size="14.00">remember_created_at :timestamp without time zone</text>
<text text-anchor="start" x="297.5" y="-654.3" font-family="Times,serif" font-size="14.00">sign_in_count :integer</text>
<text text-anchor="start" x="297.5" y="-639.3" font-family="Times,serif" font-size="14.00">current_sign_in_at :timestamp without time zone</text>
<text text-anchor="start" x="297.5" y="-624.3" font-family="Times,serif" font-size="14.00">last_sign_in_at :timestamp without time zone</text>
<text text-anchor="start" x="297.5" y="-609.3" font-family="Times,serif" font-size="14.00">current_sign_in_ip :inet</text>
<text text-anchor="start" x="297.5" y="-594.3" font-family="Times,serif" font-size="14.00">last_sign_in_ip :inet</text>
<text text-anchor="start" x="297.5" y="-579.3" font-family="Times,serif" font-size="14.00">name :character varying</text>
<text text-anchor="start" x="297.5" y="-564.3" font-family="Times,serif" font-size="14.00">reference_code :character varying</text>
<text text-anchor="start" x="297.5" y="-549.3" font-family="Times,serif" font-size="14.00">user_type :integer</text>
<text text-anchor="start" x="297.5" y="-534.3" font-family="Times,serif" font-size="14.00">created_at :timestamp without time zone</text>
<text text-anchor="start" x="297.5" y="-519.3" font-family="Times,serif" font-size="14.00">updated_at :timestamp without time zone</text>
<text text-anchor="start" x="297.5" y="-504.3" font-family="Times,serif" font-size="14.00">role :integer</text>
</g>
<!-- Plan&#45;&gt;User -->
<g id="edge3" class="edge"><title>Plan&#45;&gt;User</title>
<path fill="none" stroke="#d76898" d="M386.397,-809.591C388.357,-804.029 390.354,-798.365 392.371,-792.644"/>
<polygon fill="#d76898" stroke="#d76898" points="386.308,-809.845 378.739,-817.78 384.645,-814.561 382.983,-819.276 382.983,-819.276 382.983,-819.276 384.645,-814.561 387.227,-820.772 386.308,-809.845 386.308,-809.845"/>
<polygon fill="#d76898" stroke="#d76898" points="392.456,-792.401 400.025,-784.466 394.118,-787.686 395.781,-782.97 395.781,-782.97 395.781,-782.97 394.118,-787.686 391.537,-781.474 392.456,-792.401 392.456,-792.401"/>
</g>
<!-- User&#45;&gt;Contract -->
<g id="edge5" class="edge"><title>User&#45;&gt;Contract</title>
<path fill="none" stroke="#1d7d7a" d="M355.855,-489.395C351.642,-482.427 347.423,-475.448 343.232,-468.516"/>
<ellipse fill="none" stroke="#1d7d7a" cx="357.93" cy="-492.827" rx="4.00002" ry="4.00002"/>
<polygon fill="#1d7d7a" stroke="#1d7d7a" points="343.115,-468.323 341.792,-457.437 340.528,-464.044 337.941,-459.765 337.941,-459.765 337.941,-459.765 340.528,-464.044 334.09,-462.093 343.115,-468.323 343.115,-468.323"/>
</g>
<!-- User&#45;&gt;Result -->
<g id="edge4" class="edge"><title>User&#45;&gt;Result</title>
<path fill="none" stroke="#b06e40" d="M490.167,-488.332C492.744,-479.57 495.325,-470.795 497.875,-462.124"/>
<ellipse fill="none" stroke="#b06e40" cx="488.967" cy="-492.412" rx="4.00001" ry="4.00001"/>
<polygon fill="#b06e40" stroke="#b06e40" points="497.919,-461.976 505.058,-453.653 499.329,-457.18 500.74,-452.383 500.74,-452.383 500.74,-452.383 499.329,-457.18 496.423,-451.113 497.919,-461.976 497.919,-461.976"/>
</g>
<!-- Ability -->
<g id="node9" class="node"><title>Ability</title>
<polygon fill="none" stroke="black" points="998.5,-879.5 998.5,-925.5 1053.5,-925.5 1053.5,-879.5 998.5,-879.5"/>
<text text-anchor="middle" x="1026" y="-910.3" font-family="Times,serif" font-size="14.00">Ability</text>
<polyline fill="none" stroke="black" points="998.5,-902.5 1053.5,-902.5 "/>
<text text-anchor="middle" x="1026" y="-887.3" font-family="Times,serif" font-size="14.00"> </text>
</g>
</g>
</svg>
