<?xml version="1.0" encoding="UTF-8" standalone="no"?>
<!DOCTYPE svg PUBLIC "-//W3C//DTD SVG 1.1//EN"
 "http://www.w3.org/Graphics/SVG/1.1/DTD/svg11.dtd">
<!-- Generated by graphviz version 2.38.0 (20140413.2041)
 -->
<!-- Title: models_diagram Pages: 1 -->
<svg width="662pt" height="302pt"
 viewBox="0.00 0.00 661.50 302.00" xmlns="http://www.w3.org/2000/svg" xmlns:xlink="http://www.w3.org/1999/xlink">
<g id="graph0" class="graph" transform="scale(1 1) rotate(0) translate(4 298)">
<title>models_diagram</title>
<polygon fill="none" stroke="none" points="-4,4 -4,-298 657.5,-298 657.5,4 -4,4"/>
<!-- _diagram_info -->
<g id="node1" class="node"><title>_diagram_info</title>
<text text-anchor="start" x="8" y="-279.6" font-family="Times,serif" font-size="13.00">Models diagram</text>
<text text-anchor="start" x="8" y="-265.6" font-family="Times,serif" font-size="13.00">Date: Jan 06 2020 &#45; 23:22</text>
<text text-anchor="start" x="8" y="-251.6" font-family="Times,serif" font-size="13.00">Migration version: 20200106175859</text>
<text text-anchor="start" x="8" y="-237.6" font-family="Times,serif" font-size="13.00">Generated by RailRoady 1.5.3</text>
<text text-anchor="start" x="8" y="-223.6" font-family="Times,serif" font-size="13.00">http://railroady.prestonlee.com</text>
</g>
<!-- Contract -->
<g id="node2" class="node"><title>Contract</title>
<ellipse fill="none" stroke="black" cx="231" cy="-90" rx="40.8928" ry="18"/>
<text text-anchor="middle" x="231" y="-86.3" font-family="Times,serif" font-size="14.00">Contract</text>
</g>
<!-- Program -->
<g id="node6" class="node"><title>Program</title>
<ellipse fill="none" stroke="black" cx="231" cy="-18" rx="41.6928" ry="18"/>
<text text-anchor="middle" x="231" y="-14.3" font-family="Times,serif" font-size="14.00">Program</text>
</g>
<!-- Contract&#45;&gt;Program -->
<g id="edge1" class="edge"><title>Contract&#45;&gt;Program</title>
<path fill="none" stroke="#3b4b59" d="M231,-63.6398C231,-58.0629 231,-52.1319 231,-46.4761"/>
<ellipse fill="none" stroke="#3b4b59" cx="231" cy="-67.6966" rx="4" ry="4"/>
<polygon fill="#3b4b59" stroke="#3b4b59" points="231,-46.1043 235.5,-36.1043 231,-41.1043 231,-36.1043 231,-36.1043 231,-36.1043 231,-41.1043 226.5,-36.1044 231,-46.1043 231,-46.1043"/>
</g>
<!-- AdminUser -->
<g id="node3" class="node"><title>AdminUser</title>
<ellipse fill="none" stroke="black" cx="356" cy="-255" rx="51.9908" ry="18"/>
<text text-anchor="middle" x="356" y="-251.3" font-family="Times,serif" font-size="14.00">AdminUser</text>
</g>
<!-- ApplicationRecord -->
<g id="node4" class="node"><title>ApplicationRecord</title>
<ellipse fill="none" stroke="black" cx="503" cy="-255" rx="77.1866" ry="18"/>
<text text-anchor="middle" x="503" y="-251.3" font-family="Times,serif" font-size="14.00">ApplicationRecord</text>
</g>
<!-- Result -->
<g id="node5" class="node"><title>Result</title>
<ellipse fill="none" stroke="black" cx="323" cy="-90" rx="33.2948" ry="18"/>
<text text-anchor="middle" x="323" y="-86.3" font-family="Times,serif" font-size="14.00">Result</text>
</g>
<!-- Plan -->
<g id="node7" class="node"><title>Plan</title>
<ellipse fill="none" stroke="black" cx="259" cy="-255" rx="27" ry="18"/>
<text text-anchor="middle" x="259" y="-251.3" font-family="Times,serif" font-size="14.00">Plan</text>
</g>
<!-- Plan&#45;&gt;Contract -->
<g id="edge2" class="edge"><title>Plan&#45;&gt;Contract</title>
<path fill="none" stroke="#354440" d="M254.696,-228.945C249.567,-199.085 241.025,-149.36 235.719,-118.473"/>
<ellipse fill="none" stroke="#354440" cx="255.379" cy="-232.922" rx="4.00001" ry="4.00001"/>
<polygon fill="#354440" stroke="#354440" points="235.681,-118.252 238.423,-107.635 234.835,-113.325 233.988,-108.397 233.988,-108.397 233.988,-108.397 234.835,-113.325 229.553,-109.159 235.681,-118.252 235.681,-118.252"/>
</g>
<!-- User -->
<g id="node8" class="node"><title>User</title>
<ellipse fill="none" stroke="black" cx="286" cy="-162" rx="27.0966" ry="18"/>
<text text-anchor="middle" x="286" y="-158.3" font-family="Times,serif" font-size="14.00">User</text>
</g>
<!-- Plan&#45;&gt;User -->
<g id="edge3" class="edge"><title>Plan&#45;&gt;User</title>
<path fill="none" stroke="#7cd804" d="M267.034,-226.922C270.55,-215.073 274.66,-201.218 278.154,-189.443"/>
<polygon fill="#7cd804" stroke="#7cd804" points="266.923,-227.297 259.764,-235.604 265.501,-232.09 264.078,-236.884 264.078,-236.884 264.078,-236.884 265.501,-232.09 268.393,-238.164 266.923,-227.297 266.923,-227.297"/>
<polygon fill="#7cd804" stroke="#7cd804" points="278.191,-189.319 285.35,-181.012 279.613,-184.526 281.036,-179.732 281.036,-179.732 281.036,-179.732 279.613,-184.526 276.721,-178.452 278.191,-189.319 278.191,-189.319"/>
</g>
<!-- User&#45;&gt;Contract -->
<g id="edge5" class="edge"><title>User&#45;&gt;Contract</title>
<path fill="none" stroke="#c13df6" d="M268.947,-139.296C262.953,-131.667 256.181,-123.049 250.034,-115.226"/>
<ellipse fill="none" stroke="#c13df6" cx="271.595" cy="-142.666" rx="4.00002" ry="4.00002"/>
<polygon fill="#c13df6" stroke="#c13df6" points="249.855,-114.997 247.215,-104.353 246.765,-111.065 243.676,-107.134 243.676,-107.134 243.676,-107.134 246.765,-111.065 240.138,-109.914 249.855,-114.997 249.855,-114.997"/>
</g>
<!-- User&#45;&gt;Result -->
<g id="edge4" class="edge"><title>User&#45;&gt;Result</title>
<path fill="none" stroke="#2304d5" d="M298.376,-137.585C301.943,-130.837 305.853,-123.441 309.485,-116.569"/>
<ellipse fill="none" stroke="#2304d5" cx="296.451" cy="-141.228" rx="4.00002" ry="4.00002"/>
<polygon fill="#2304d5" stroke="#2304d5" points="309.535,-116.474 318.186,-109.736 311.871,-112.054 314.208,-107.633 314.208,-107.633 314.208,-107.633 311.871,-112.054 310.23,-105.53 309.535,-116.474 309.535,-116.474"/>
</g>
<!-- Ability -->
<g id="node9" class="node"><title>Ability</title>
<polygon fill="none" stroke="black" points="653.5,-273 598.5,-273 598.5,-237 653.5,-237 653.5,-273"/>
<text text-anchor="middle" x="626" y="-251.3" font-family="Times,serif" font-size="14.00">Ability</text>
</g>
</g>
</svg>
